<svg width="61" height="65" viewBox="0 0 61 65" fill="none" xmlns="http://www.w3.org/2000/svg">
<path fill-rule="evenodd" clip-rule="evenodd" d="M49.5625 12.1841V56.8716C49.5625 58.4939 47.8657 59.4616 46.5989 58.5617L30.5 47.1277L14.4011 58.5617C13.1947 59.4188 11.5981 58.5819 11.4488 57.0988L11.4375 56.8716V12.1841C11.4375 8.8186 13.9979 6.09033 17.1562 6.09033H43.8438C47.0021 6.09033 49.5625 8.8186 49.5625 12.1841ZM15.25 53.0772L29.4426 42.994C30.0829 42.5391 30.9171 42.5391 31.5574 42.994L45.75 53.0752V12.1841C45.75 11.1424 45.0141 10.2838 44.0661 10.1665L43.8438 10.1528H17.1562C16.1035 10.1528 15.25 11.0623 15.25 12.1841V53.0772Z" fill="url(#paint0_linear_110_334)"/>
<defs>
<linearGradient id="paint0_linear_110_334" x1="11.4375" y1="6.09033" x2="11.4375" y2="58.9062" gradientUnits="userSpaceOnUse">
<stop offset="0.00169362" stop-color="#A300FF"/>
<stop offset="1" stop-color="#2C00FF"/>
</linearGradient>
</defs>
</svg>
