<svg width="65" height="65" viewBox="0 0 65 65" fill="none" xmlns="http://www.w3.org/2000/svg">
<path fill-rule="evenodd" clip-rule="evenodd" d="M52.8125 12.1841V56.8716C52.8125 58.4939 51.0044 59.4616 49.6545 58.5617L32.5 47.1277L15.3455 58.5617C14.0599 59.4188 12.3587 58.5819 12.1996 57.0988L12.1875 56.8716V12.1841C12.1875 8.8186 14.9158 6.09033 18.2812 6.09033H46.7188C50.0842 6.09033 52.8125 8.8186 52.8125 12.1841ZM16.25 53.0772L31.3733 42.994C32.0556 42.5391 32.9444 42.5391 33.6267 42.994L48.75 53.0752V12.1841C48.75 11.1424 47.9659 10.2838 46.9556 10.1665L46.7188 10.1528H18.2812C17.1594 10.1528 16.25 11.0623 16.25 12.1841V53.0772Z" fill="url(#paint0_linear_19_587)"/>
<defs>
<linearGradient id="paint0_linear_19_587" x1="12.1875" y1="6.09033" x2="12.1875" y2="58.9062" gradientUnits="userSpaceOnUse">
<stop offset="0.00169362" stop-color="#A300FF"/>
<stop offset="1" stop-color="#2C00FF"/>
</linearGradient>
</defs>
</svg>
