<svg width="20" height="19" viewBox="0 0 20 19" fill="none" xmlns="http://www.w3.org/2000/svg">
<path d="M9.86801 16.4595C13.8864 16.4595 17.144 13.3751 17.144 9.57019C17.144 5.76531 13.8864 2.68085 9.86801 2.68085C5.84959 2.68085 2.59201 5.76531 2.59201 9.57019C2.59201 13.3751 5.84959 16.4595 9.86801 16.4595Z" stroke="white" stroke-linecap="round" stroke-linejoin="round"/>
<path d="M11.4849 8.0392C11.4849 7.63317 11.3146 7.24376 11.0113 6.95665C10.7081 6.66954 10.2968 6.50824 9.86802 6.50824C9.43919 6.50824 9.02793 6.66954 8.72471 6.95665C8.42148 7.24376 8.25113 7.63317 8.25113 8.0392V11.1011C8.25113 11.5072 8.42148 11.8966 8.72471 12.1837C9.02793 12.4708 9.43919 12.6321 9.86802 12.6321C10.2968 12.6321 10.7081 12.4708 11.0113 12.1837C11.3146 11.8966 11.4849 11.5072 11.4849 11.1011" stroke="white" stroke-linecap="round" stroke-linejoin="round"/>
</svg>
