<svg width="95" height="63" viewBox="0 0 95 63" fill="none" xmlns="http://www.w3.org/2000/svg">
<rect width="93.7063" height="61.6366" transform="translate(0.702087 0.751465)" fill="#A300FF"/>
<path d="M44.6269 20.9373H8.51094V42.3304C8.51094 42.4844 8.51094 42.6385 8.54998 42.7669H44.6269V20.9373ZM30.731 17.085H44.6308V5.8877H30.8482V16.7768C30.8482 16.8796 30.7701 16.9823 30.731 17.085ZM24.9837 16.7768V6.29861C16.3159 7.47998 10.6545 11.2809 9.01461 17.085H25.0618C25.0228 16.9823 24.9837 16.8796 24.9837 16.7768ZM64.0319 5.8877H50.4835V17.085H64.0319V5.8877ZM69.8495 17.0799H86.0919C84.4521 11.2244 78.7125 7.39779 69.8885 6.26779V17.0028C69.8885 17.0285 69.8495 17.0542 69.8495 17.0799ZM69.8846 56.8663C78.4353 55.762 84.0577 52.1665 85.8928 46.6192H69.8846V56.8663ZM64.0319 46.6192H50.4835V57.2516H64.0319V46.6192ZM50.4835 42.7669H86.5604C86.5995 42.6385 86.5995 42.4844 86.5995 42.3304V20.9373H50.4835V42.7669ZM44.623 46.6192H30.8404V57.2516H44.623V46.6192ZM9.21374 46.6192C11.0488 52.1152 16.5931 55.7106 24.9876 56.8406V46.6192H9.21374Z" fill="white"/>
</svg>
