<svg width="30" height="31" viewBox="0 0 30 31" fill="none" xmlns="http://www.w3.org/2000/svg">
<rect width="30" height="31" fill="url(#paint0_linear_303_448)"/>
<path d="M20.2375 2.5835H9.7625C5.2125 2.5835 2.5 5.38641 2.5 10.0881V20.9122C2.5 24.5418 4.1125 27.0347 6.95 27.9777C7.775 28.2747 8.725 28.4168 9.7625 28.4168H20.2375C21.275 28.4168 22.225 28.2747 23.05 27.9777C25.8875 27.0347 27.5 24.5418 27.5 20.9122V10.0881C27.5 5.38641 24.7875 2.5835 20.2375 2.5835ZM25.625 20.9122C25.625 23.6764 24.575 25.4202 22.4625 26.1435C21.25 23.6764 18.375 21.9197 15 21.9197C11.625 21.9197 8.7625 23.6635 7.5375 26.1435H7.525C5.4375 25.446 4.375 23.6893 4.375 20.9252V10.0881C4.375 6.44558 6.2375 4.521 9.7625 4.521H20.2375C23.7625 4.521 25.625 6.44558 25.625 10.0881V20.9122Z" fill="black"/>
<path d="M15.0026 10.3335C12.5276 10.3335 10.5276 12.4002 10.5276 14.9577C10.5276 17.5152 12.5276 19.5947 15.0026 19.5947C17.4776 19.5947 19.4776 17.5152 19.4776 14.9577C19.4776 12.4002 17.4776 10.3335 15.0026 10.3335Z" fill="black"/>
<defs>
<linearGradient id="paint0_linear_303_448" x1="15" y1="0" x2="15" y2="31" gradientUnits="userSpaceOnUse">
<stop stop-color="#BA3FFF"/>
<stop offset="0.916667" stop-color="#FAF1FF" stop-opacity="0.239583"/>
<stop offset="1" stop-color="white" stop-opacity="0"/>
</linearGradient>
</defs>
</svg>
