<svg width="65" height="65" viewBox="0 0 65 65" fill="none" xmlns="http://www.w3.org/2000/svg">
<path fill-rule="evenodd" clip-rule="evenodd" d="M6.09375 32.5C6.09375 17.9162 17.9162 6.09375 32.5 6.09375C47.0838 6.09375 58.9062 17.9162 58.9062 32.5C58.9062 47.0838 47.0838 58.9062 32.5 58.9062C17.9162 58.9062 6.09375 47.0838 6.09375 32.5ZM54.8438 32.5C54.8438 20.1599 44.8401 10.1562 32.5 10.1562C20.1599 10.1562 10.1562 20.1599 10.1562 32.5C10.1562 44.8401 20.1599 54.8438 32.5 54.8438C44.8401 54.8438 54.8438 44.8401 54.8438 32.5Z" fill="url(#paint0_linear_19_533)"/>
<path d="M32.5 36.5625C31.4583 36.5625 30.5998 35.7784 30.4824 34.7681L30.4688 34.5312V20.3125C30.4688 19.1907 31.3782 18.2812 32.5 18.2812C33.5417 18.2812 34.4002 19.0654 34.5176 20.0756L34.5312 20.3125V34.5312C34.5312 35.6531 33.6218 36.5625 32.5 36.5625Z" fill="url(#paint1_linear_19_533)"/>
<rect x="30.4688" y="40.625" width="4.0625" height="4.0625" fill="url(#paint2_linear_19_533)"/>
<defs>
<linearGradient id="paint0_linear_19_533" x1="6.09375" y1="6.09375" x2="6.09375" y2="58.9062" gradientUnits="userSpaceOnUse">
<stop offset="0.00169362" stop-color="#A300FF"/>
<stop offset="1" stop-color="#2C00FF"/>
</linearGradient>
<linearGradient id="paint1_linear_19_533" x1="30.4688" y1="18.2812" x2="30.4688" y2="36.5625" gradientUnits="userSpaceOnUse">
<stop offset="0.00169362" stop-color="#A300FF"/>
<stop offset="1" stop-color="#2C00FF"/>
</linearGradient>
<linearGradient id="paint2_linear_19_533" x1="30.4688" y1="40.625" x2="30.4688" y2="44.6875" gradientUnits="userSpaceOnUse">
<stop offset="0.00169362" stop-color="#A300FF"/>
<stop offset="1" stop-color="#2C00FF"/>
</linearGradient>
</defs>
</svg>
