<svg width="45" height="48" viewBox="0 0 45 48" fill="none" xmlns="http://www.w3.org/2000/svg">
<path fill-rule="evenodd" clip-rule="evenodd" d="M18.4265 40.6451C17.6347 39.8009 17.2165 38.7449 17.2116 37.7924C16.9769 36.8802 17.1761 35.395 17.4975 33.8775L17.5465 33.6497L17.5972 33.4218C17.6058 33.3838 17.6144 33.3459 17.6231 33.3079L17.6757 33.0807L17.7294 32.8544L17.7838 32.6294L17.8663 32.2954L17.977 31.8584L18.0594 31.5389L18.3668 30.3592L18.4342 30.0957L18.4963 29.8476L18.5343 29.6914C18.5404 29.666 18.5464 29.641 18.5522 29.6162L18.5857 29.4719C18.5963 29.4252 18.6064 29.3799 18.6159 29.336L18.6425 29.209C18.692 28.964 18.7188 28.7745 18.7145 28.6551C17.4724 28.9885 16.4354 29.1944 15.5652 29.3151L15.3673 29.3415L15.1753 29.365C14.923 29.3944 14.686 29.4163 14.4632 29.4321L14.2986 29.4428C14.2716 29.4444 14.2449 29.4459 14.2183 29.4473L14.0615 29.4548C14.0358 29.4558 14.0103 29.4568 13.9851 29.4577L13.8358 29.4621C13.7869 29.4633 13.7387 29.4641 13.6914 29.4647L13.5518 29.4655L13.4168 29.4647C13.3726 29.4642 13.3292 29.4634 13.2865 29.4624L13.1605 29.4587C13.1399 29.458 13.1195 29.4572 13.0992 29.4564L12.9798 29.4508C12.9602 29.4498 12.9409 29.4487 12.9216 29.4476L12.8085 29.4404L12.6993 29.4323L12.5941 29.4234L12.4435 29.4087L12.3477 29.3983L12.2106 29.3819L12.0398 29.3593L11.8817 29.3368L11.5687 29.2908L11.4762 29.2784L11.389 29.2681L11.3336 29.2625L11.3068 29.2602C9.22171 29.0915 7.5175 27.3168 7.5175 25.0856C7.5175 24.4991 7.63473 23.9418 7.84557 23.4388C7.32421 22.7468 7.01226 21.8677 7.01226 20.911C7.01226 19.8297 7.41066 18.8477 8.05948 18.1227C7.87263 17.6093 7.77011 17.0509 7.77011 16.467C7.77011 15.0469 8.37649 13.7779 9.32825 12.938C9.31426 12.8326 9.3072 12.726 9.30187 12.6183L9.29195 12.4016C9.29017 12.3653 9.28819 12.3289 9.28582 12.2924C8.73123 3.7387 27.0987 7.44874 30.0313 8.718C30.1843 8.78423 30.3304 8.94204 30.4675 9.17636C30.8462 8.92222 31.2809 8.75082 31.7506 8.68734L36.696 8.01898C37.4218 7.92093 38.0946 8.43978 38.2344 9.20543C38.6395 11.4231 38.8421 13.7583 38.8421 16.2108C38.8421 18.7402 38.6266 21.2697 38.1957 23.7991C38.0703 24.5345 37.4507 25.055 36.7507 25.0131L31.3741 24.6901C31.0775 24.6723 30.7952 24.6005 30.5355 24.4838C30.2091 25.2731 29.8136 25.9972 29.3699 26.5298L28.6654 27.3761L28.5233 27.548L28.3189 27.7969L28.1881 27.9577L28.0615 28.115L27.9387 28.2692L27.8196 28.4208L27.7038 28.5704C27.6848 28.5952 27.6659 28.6199 27.6471 28.6445L27.536 28.792C27.5177 28.8165 27.4995 28.8409 27.4815 28.8654L27.3744 29.0118C26.704 29.9384 26.1782 30.8617 25.5171 32.3537L25.4115 32.5941C25.3404 32.7576 25.2675 32.9277 25.1927 33.1052L25.079 33.3769L24.962 33.6601L24.8415 33.9552L24.7174 34.2628L24.5892 34.5833L24.4569 34.9173L24.3201 35.2653L24.1786 35.6276L23.957 36.1994L23.8027 36.6001L23.5608 37.2317L23.3922 37.6739C23.366 37.7426 23.3592 37.8363 23.3635 37.9505L23.3663 38.0046L23.3705 38.0614L23.379 38.1518L23.3976 38.3147L23.4285 38.5664L23.4461 38.7209L23.4581 38.8413L23.4652 38.9235C23.4663 38.9373 23.4674 38.9512 23.4684 38.9651L23.4741 39.0494C23.475 39.0636 23.4758 39.0778 23.4765 39.0921L23.4804 39.1782C23.503 39.8001 23.414 40.5084 22.918 41.1311C21.8798 42.4344 19.783 42.0913 18.4265 40.6451Z" stroke="white" stroke-width="1.44086"/>
<path d="M30.5387 8.28467L30.5158 24.602" stroke="white" stroke-width="1.44086" stroke-linejoin="round"/>
</svg>
