<svg width="45" height="48" viewBox="0 0 45 48" fill="none" xmlns="http://www.w3.org/2000/svg">
<path fill-rule="evenodd" clip-rule="evenodd" d="M26.4048 7.35493C27.1915 8.19912 27.607 9.25506 27.6119 10.2076C27.8452 11.1198 27.6472 12.605 27.3279 14.1225L27.2791 14.3503L27.2288 14.5782C27.2203 14.6162 27.2117 14.6541 27.2031 14.6921L27.1508 14.9193L27.0975 15.1456L27.0434 15.3706L26.9614 15.7046L26.8515 16.1416L26.7696 16.4611L26.4641 17.6408L26.3971 17.9043L26.3355 18.1524L26.2977 18.3086C26.2916 18.334 26.2857 18.359 26.2799 18.3838L26.2466 18.5281C26.2361 18.5748 26.2261 18.6201 26.2167 18.664L26.1902 18.791C26.141 19.036 26.1144 19.2255 26.1187 19.3449C27.3528 19.0115 28.3832 18.8056 29.2478 18.6849L29.4444 18.6585L29.6352 18.635C29.8858 18.6056 30.1213 18.5837 30.3427 18.5679L30.5062 18.5572C30.533 18.5556 30.5596 18.5541 30.586 18.5527L30.7418 18.5452C30.7673 18.5442 30.7926 18.5432 30.8178 18.5423L30.9661 18.5379C31.0147 18.5367 31.0625 18.5359 31.1095 18.5353L31.2482 18.5345L31.3823 18.5353C31.4263 18.5358 31.4694 18.5366 31.5119 18.5376L31.637 18.5413C31.6575 18.542 31.6778 18.5428 31.6979 18.5436L31.8166 18.5492C31.836 18.5502 31.8553 18.5513 31.8743 18.5524L31.9868 18.5596L32.0952 18.5677L32.1997 18.5766L32.3494 18.5913L32.4446 18.6017L32.5808 18.6181L32.7505 18.6407L32.9076 18.6632L33.2186 18.7092L33.3105 18.7216L33.3972 18.7319L33.4521 18.7375L33.4788 18.7398C35.5505 18.9085 37.2438 20.6832 37.2438 22.9144C37.2438 23.5009 37.1273 24.0582 36.9178 24.5612C37.4358 25.2532 37.7458 26.1323 37.7458 27.089C37.7458 28.1703 37.3499 29.1523 36.7053 29.8773C36.8909 30.3907 36.9928 30.9491 36.9928 31.533C36.9928 32.9531 36.3903 34.2221 35.4446 35.062C35.4586 35.1674 35.4656 35.274 35.4709 35.3817L35.4807 35.5984C35.4825 35.6347 35.4845 35.6711 35.4868 35.7076C36.0378 44.2613 17.7883 40.5513 14.8745 39.282C14.7225 39.2158 14.5774 39.058 14.4412 38.8236C14.0649 39.0778 13.633 39.2492 13.1663 39.3127L8.25268 39.981C7.53152 40.0791 6.86307 39.5602 6.72415 38.7946C6.32162 36.5769 6.12036 34.2417 6.12036 31.7892C6.12036 29.2598 6.33445 26.7303 6.76262 24.2009C6.88725 23.4655 7.50286 22.945 8.19829 22.9869L13.5404 23.3099C13.8351 23.3277 14.1155 23.3995 14.3736 23.5162C14.698 22.7269 15.0909 22.0028 15.5317 21.4702L16.2317 20.6239L16.3729 20.452L16.576 20.2031L16.7059 20.0423L16.8317 19.885L16.9537 19.7308L17.0721 19.5792L17.1871 19.4296C17.206 19.4048 17.2248 19.3801 17.2434 19.3555L17.3539 19.208C17.372 19.1835 17.3901 19.1591 17.408 19.1346L17.5144 18.9882C18.1805 18.0616 18.7029 17.1383 19.3598 15.6463L19.4647 15.4059C19.5354 15.2424 19.6077 15.0723 19.6821 14.8948L19.7951 14.6231L19.9113 14.3399L20.031 14.0448L20.1544 13.7372L20.2817 13.4167L20.4132 13.0827L20.5491 12.7347L20.6897 12.3724L20.9098 11.8006L21.0631 11.3999L21.3035 10.7683L21.471 10.3261C21.497 10.2574 21.5038 10.1637 21.4995 10.0495L21.4968 9.99544L21.4926 9.93856L21.4842 9.84824L21.4656 9.68525L21.4349 9.43365L21.4175 9.27912L21.4056 9.15874L21.3985 9.07654C21.3974 9.06272 21.3963 9.04884 21.3953 9.0349L21.3896 8.95058C21.3888 8.93642 21.388 8.92221 21.3872 8.90794L21.3834 8.82175C21.3609 8.1999 21.4493 7.49157 21.9422 6.86888C22.9737 5.56557 25.0571 5.90871 26.4048 7.35493Z" stroke="white" stroke-width="1.44086"/>
<path d="M14.3707 39.7153L14.3935 23.398" stroke="white" stroke-width="1.44086" stroke-linejoin="round"/>
</svg>
