<svg width="45" height="48" viewBox="0 0 45 48" fill="none" xmlns="http://www.w3.org/2000/svg">
<path fill-rule="evenodd" clip-rule="evenodd" d="M18.4267 40.6451C17.6349 39.8009 17.2167 38.7449 17.2118 37.7924C16.9771 36.8802 17.1763 35.395 17.4977 33.8775L17.5467 33.6497L17.5974 33.4218C17.606 33.3838 17.6146 33.3459 17.6233 33.3079L17.6759 33.0807L17.7295 32.8544L17.784 32.6294L17.8665 32.2954L17.9772 31.8584L18.0595 31.5389L18.367 30.3592L18.4344 30.0957L18.4965 29.8476L18.5345 29.6914C18.5406 29.666 18.5466 29.641 18.5524 29.6162L18.5859 29.4719C18.5965 29.4252 18.6066 29.3799 18.6161 29.336L18.6427 29.209C18.6922 28.964 18.719 28.7745 18.7147 28.6551C17.4726 28.9885 16.4355 29.1944 15.5654 29.3151L15.3675 29.3415L15.1754 29.365C14.9232 29.3944 14.6862 29.4163 14.4633 29.4321L14.2988 29.4428C14.2718 29.4444 14.2451 29.4459 14.2185 29.4473L14.0617 29.4548C14.036 29.4558 14.0105 29.4568 13.9852 29.4577L13.836 29.4621C13.787 29.4633 13.7389 29.4641 13.6916 29.4647L13.552 29.4655L13.417 29.4647C13.3728 29.4642 13.3294 29.4634 13.2866 29.4624L13.1607 29.4587C13.1401 29.458 13.1197 29.4572 13.0994 29.4564L12.98 29.4508C12.9604 29.4498 12.941 29.4487 12.9218 29.4476L12.8087 29.4404L12.6995 29.4323L12.5943 29.4234L12.4437 29.4087L12.3479 29.3983L12.2108 29.3819L12.04 29.3593L11.8819 29.3368L11.5689 29.2908L11.4764 29.2784L11.3892 29.2681L11.3338 29.2625L11.3069 29.2602C9.22189 29.0915 7.51768 27.3168 7.51768 25.0856C7.51768 24.4991 7.63491 23.9418 7.84575 23.4388C7.32439 22.7468 7.01244 21.8677 7.01244 20.911C7.01244 19.8297 7.41084 18.8477 8.05966 18.1227C7.87282 17.6093 7.7703 17.0509 7.7703 16.467C7.7703 15.0469 8.37668 13.7779 9.32844 12.938C9.31444 12.8326 9.30739 12.726 9.30205 12.6183L9.29214 12.4016C9.29035 12.3653 9.28837 12.3289 9.286 12.2924C8.73141 3.7387 27.0989 7.44874 30.0315 8.718C30.1845 8.78423 30.3305 8.94204 30.4676 9.17636C30.8464 8.92222 31.2811 8.75082 31.7508 8.68734L36.6962 8.01898C37.422 7.92093 38.0948 8.43978 38.2346 9.20543C38.6397 11.4231 38.8423 13.7583 38.8423 16.2108C38.8423 18.7402 38.6268 21.2697 38.1959 23.7991C38.0704 24.5345 37.4509 25.055 36.7509 25.0131L31.3743 24.6901C31.0777 24.6723 30.7954 24.6005 30.5357 24.4838C30.2092 25.2731 29.8137 25.9972 29.3701 26.5298L28.6656 27.3761L28.5234 27.548L28.3191 27.7969L28.1883 27.9577L28.0617 28.115L27.9389 28.2692L27.8198 28.4208L27.704 28.5704C27.685 28.5952 27.6661 28.6199 27.6473 28.6445L27.5362 28.792C27.5179 28.8165 27.4997 28.8409 27.4817 28.8654L27.3746 29.0118C26.7042 29.9384 26.1784 30.8617 25.5173 32.3537L25.4117 32.5941C25.3406 32.7576 25.2677 32.9277 25.1929 33.1052L25.0792 33.3769L24.9622 33.6601L24.8417 33.9552L24.7175 34.2628L24.5894 34.5833L24.4571 34.9173L24.3203 35.2653L24.1788 35.6276L23.9572 36.1994L23.8029 36.6001L23.561 37.2317L23.3924 37.6739C23.3662 37.7426 23.3594 37.8363 23.3637 37.9505L23.3665 38.0046L23.3706 38.0614L23.3791 38.1518L23.3978 38.3147L23.4287 38.5664L23.4462 38.7209L23.4583 38.8413L23.4654 38.9235C23.4665 38.9373 23.4676 38.9512 23.4686 38.9651L23.4743 39.0494C23.4752 39.0636 23.476 39.0778 23.4767 39.0921L23.4806 39.1782C23.5032 39.8001 23.4142 40.5084 22.9182 41.1311C21.88 42.4344 19.7832 42.0913 18.4267 40.6451Z" stroke="white" stroke-width="1.44086"/>
<path d="M30.5389 8.28467L30.5159 24.602" stroke="white" stroke-width="1.44086" stroke-linejoin="round"/>
</svg>
