<svg width="45" height="48" viewBox="0 0 45 48" fill="none" xmlns="http://www.w3.org/2000/svg">
<path fill-rule="evenodd" clip-rule="evenodd" d="M18.4992 40.6451C17.7125 39.8009 17.297 38.7449 17.2921 37.7924C17.0589 36.8802 17.2569 35.395 17.5762 33.8775L17.6249 33.6497L17.6753 33.4218C17.6838 33.3838 17.6923 33.3459 17.701 33.3079L17.7532 33.0807L17.8065 32.8544L17.8606 32.6294L17.9427 32.2954L18.0526 31.8584L18.1344 31.5389L18.4399 30.3592L18.5069 30.0957L18.5686 29.8476L18.6064 29.6914C18.6124 29.666 18.6183 29.641 18.6241 29.6162L18.6574 29.4719C18.668 29.4252 18.678 29.3799 18.6874 29.336L18.7138 29.209C18.763 28.964 18.7897 28.7745 18.7854 28.6551C17.5512 28.9885 16.5209 29.1944 15.6563 29.3151L15.4597 29.3415L15.2689 29.365C15.0182 29.3944 14.7828 29.4163 14.5613 29.4321L14.3979 29.4428C14.371 29.4444 14.3445 29.4459 14.3181 29.4473L14.1623 29.4548C14.1368 29.4558 14.1114 29.4568 14.0863 29.4577L13.938 29.4621C13.8894 29.4633 13.8416 29.4641 13.7945 29.4647L13.6558 29.4655L13.5217 29.4647C13.4778 29.4642 13.4346 29.4634 13.3922 29.4624L13.2671 29.4587C13.2466 29.458 13.2263 29.4572 13.2061 29.4564L13.0875 29.4508C13.0681 29.4498 13.0488 29.4487 13.0297 29.4476L12.9173 29.4404L12.8088 29.4323L12.7043 29.4234L12.5546 29.4087L12.4595 29.3983L12.3233 29.3819L12.1535 29.3593L11.9965 29.3368L11.6855 29.2908L11.5935 29.2784L11.5069 29.2681L11.4519 29.2625L11.4252 29.2602C9.35354 29.0915 7.66028 27.3168 7.66028 25.0856C7.66028 24.4991 7.77675 23.9418 7.98624 23.4388C7.46823 22.7468 7.15829 21.8677 7.15829 20.911C7.15829 19.8297 7.55412 18.8477 8.19878 18.1227C8.01313 17.6093 7.91127 17.0509 7.91127 16.467C7.91127 15.0469 8.51376 13.7779 9.4594 12.938C9.4455 12.8326 9.43849 12.726 9.43319 12.6183L9.42333 12.4016C9.42156 12.3653 9.41959 12.3289 9.41724 12.2924C8.86621 3.7387 27.1158 7.44874 30.0295 8.718C30.1815 8.78423 30.3266 8.94204 30.4628 9.17636C30.8392 8.92222 31.2711 8.75082 31.7378 8.68734L36.6514 8.01898C37.3725 7.92093 38.041 8.43978 38.1799 9.20543C38.5824 11.4231 38.7837 13.7583 38.7837 16.2108C38.7837 18.7402 38.5696 21.2697 38.1414 23.7991C38.0168 24.5345 37.4012 25.055 36.7058 25.0131L31.3636 24.6901C31.069 24.6723 30.7885 24.6005 30.5305 24.4838C30.2061 25.2731 29.8131 25.9972 29.3723 26.5298L28.6723 27.3761L28.5311 27.548L28.3281 27.7969L28.1982 27.9577L28.0723 28.115L27.9504 28.2692L27.832 28.4208L27.717 28.5704C27.6981 28.5952 27.6793 28.6199 27.6606 28.6445L27.5502 28.792C27.532 28.8165 27.514 28.8409 27.496 28.8654L27.3896 29.0118C26.7236 29.9384 26.2011 30.8617 25.5443 32.3537L25.4394 32.5941C25.3687 32.7576 25.2963 32.9277 25.222 33.1052L25.109 33.3769L24.9927 33.6601L24.873 33.9552L24.7497 34.2628L24.6224 34.5833L24.4909 34.9173L24.355 35.2653L24.2144 35.6276L23.9942 36.1994L23.8409 36.6001L23.6006 37.2317L23.433 37.6739C23.407 37.7426 23.4002 37.8363 23.4045 37.9505L23.4073 38.0046L23.4114 38.0614L23.4199 38.1518L23.4384 38.3147L23.4691 38.5664L23.4865 38.7209L23.4985 38.8413L23.5055 38.9235C23.5067 38.9373 23.5077 38.9512 23.5088 38.9651L23.5144 39.0494C23.5153 39.0636 23.5161 39.0778 23.5168 39.0921L23.5206 39.1782C23.5431 39.8001 23.4547 40.5084 22.9619 41.1311C21.9304 42.4344 19.847 42.0913 18.4992 40.6451Z" stroke="white" stroke-width="1.44086"/>
<path d="M30.5334 8.28467L30.5106 24.602" stroke="white" stroke-width="1.44086" stroke-linejoin="round"/>
</svg>
