<svg width="44" height="48" viewBox="0 0 44 48" fill="none" xmlns="http://www.w3.org/2000/svg">
<path fill-rule="evenodd" clip-rule="evenodd" d="M18.2036 40.6448C17.4185 39.8006 17.0038 38.7447 16.999 37.7922C16.7662 36.8799 16.9638 35.3948 17.2824 33.8772L17.3311 33.6494L17.3813 33.4215C17.3898 33.3836 17.3983 33.3456 17.407 33.3077L17.4591 33.0805L17.5123 32.8542L17.5663 32.6292L17.6482 32.2951L17.7579 31.8582L17.8395 31.5386L18.1444 30.3589L18.2112 30.0955L18.2728 29.8474L18.3105 29.6912C18.3165 29.6658 18.3224 29.6407 18.3282 29.616L18.3614 29.4717C18.372 29.4249 18.3819 29.3796 18.3913 29.3358L18.4177 29.2087C18.4668 28.9638 18.4934 28.7743 18.4891 28.6548C17.2575 28.9883 16.2293 29.1941 15.3665 29.3149L15.1703 29.3412L14.9799 29.3647C14.7298 29.3941 14.4948 29.4161 14.2738 29.4319L14.1106 29.4426C14.0839 29.4442 14.0574 29.4457 14.031 29.4471L13.8756 29.4545C13.8501 29.4556 13.8248 29.4566 13.7997 29.4575L13.6517 29.4619C13.6032 29.463 13.5555 29.4639 13.5086 29.4645L13.3701 29.4653L13.2363 29.4645C13.1925 29.464 13.1494 29.4632 13.107 29.4622L12.9822 29.4585C12.9617 29.4577 12.9415 29.457 12.9214 29.4561L12.803 29.4506C12.7836 29.4495 12.7644 29.4485 12.7453 29.4474L12.6331 29.4402L12.5249 29.4321L12.4206 29.4231L12.2712 29.4085L12.1762 29.3981L12.0403 29.3817L11.8709 29.3591L11.7142 29.3365L11.4038 29.2906L11.3121 29.2782L11.2256 29.2678L11.1708 29.2623L11.1441 29.26C9.07672 29.0912 7.38694 27.3166 7.38694 25.0854C7.38694 24.4988 7.50317 23.9415 7.71223 23.4386C7.19529 22.7466 6.88598 21.8675 6.88598 20.9107C6.88598 19.8295 7.281 18.8475 7.92433 18.1224C7.73907 17.6091 7.63742 17.0507 7.63742 16.4668C7.63742 15.0467 8.23866 13.7776 9.18236 12.9378C9.16849 12.8324 9.16149 12.7257 9.1562 12.6181L9.14637 12.4014C9.1446 12.3651 9.14263 12.3287 9.14029 12.2922C8.59039 3.73846 26.8024 7.4485 29.7101 8.71776C29.8618 8.78399 30.0066 8.94179 30.1426 9.17612C30.5181 8.92197 30.9491 8.75057 31.4149 8.68709L36.3184 8.01874C37.038 7.92069 37.7051 8.43954 37.8437 9.20518C38.2454 11.4229 38.4463 13.758 38.4463 16.2105C38.4463 18.74 38.2326 21.2694 37.8054 23.7989C37.681 24.5342 37.0666 25.0548 36.3726 25.0129L31.0415 24.6899C30.7474 24.6721 30.4676 24.6002 30.2101 24.4836C29.8864 25.2728 29.4942 25.997 29.0543 26.5296L28.3557 27.3759L28.2148 27.5477L28.0122 27.7967L27.8825 27.9575L27.757 28.1147L27.6352 28.2689L27.5171 28.4205L27.4023 28.5701C27.3835 28.5949 27.3647 28.6196 27.3461 28.6443L27.2359 28.7917C27.2178 28.8162 27.1998 28.8407 27.1819 28.8651L27.0757 29.0115C26.411 29.9381 25.8896 30.8615 25.2341 32.3534L25.1295 32.5938C25.0589 32.7573 24.9867 32.9275 24.9125 33.1049L24.7997 33.3767L24.6837 33.6598L24.5643 33.955L24.4411 34.2626L24.3141 34.5831L24.1829 34.9171L24.0472 35.265L23.907 35.6274L23.6873 36.1992L23.5343 36.5999L23.2944 37.2315L23.1272 37.6736C23.1013 37.7423 23.0945 37.8361 23.0988 37.9502L23.1015 38.0043L23.1057 38.0612L23.1141 38.1515L23.1326 38.3145L23.1632 38.5661L23.1806 38.7206L23.1925 38.841L23.1996 38.9232C23.2007 38.937 23.2018 38.9509 23.2028 38.9649L23.2084 39.0492C23.2093 39.0633 23.2101 39.0775 23.2108 39.0918L23.2146 39.178C23.2371 39.7999 23.1489 40.5082 22.6571 41.1309C21.6277 42.4342 19.5486 42.091 18.2036 40.6448Z" stroke="white" stroke-width="1.44086"/>
<path d="M30.2131 8.28467L30.1903 24.602" stroke="white" stroke-width="1.44086" stroke-linejoin="round"/>
</svg>
