<svg width="50" height="48" viewBox="0 0 50 48" fill="none" xmlns="http://www.w3.org/2000/svg">
<path fill-rule="evenodd" clip-rule="evenodd" d="M20.7647 40.6451C19.8998 39.8009 19.443 38.7449 19.4376 37.7924C19.1812 36.8802 19.3988 35.395 19.7498 33.8775L19.8035 33.6497L19.8588 33.4218C19.8682 33.3838 19.8776 33.3459 19.8871 33.3079L19.9445 33.0807L20.0031 32.8544L20.0626 32.6294L20.1528 32.2954L20.2736 31.8584L20.3636 31.5389L20.6995 30.3592L20.7731 30.0957L20.8409 29.8476L20.8825 29.6914C20.8891 29.666 20.8956 29.641 20.902 29.6162L20.9386 29.4719C20.9502 29.4252 20.9612 29.3799 20.9715 29.336L21.0006 29.209C21.0547 28.964 21.084 28.7745 21.0793 28.6551C19.7224 28.9885 18.5896 29.1944 17.6391 29.3151L17.423 29.3415L17.2132 29.365C16.9376 29.3944 16.6788 29.4163 16.4353 29.4321L16.2556 29.4428C16.2261 29.4444 16.1969 29.4459 16.1679 29.4473L15.9966 29.4548C15.9685 29.4558 15.9407 29.4568 15.913 29.4577L15.75 29.4621C15.6965 29.4633 15.644 29.4641 15.5923 29.4647L15.4398 29.4655L15.2924 29.4647C15.2441 29.4642 15.1966 29.4634 15.1499 29.4624L15.0124 29.4587C14.9899 29.458 14.9675 29.4572 14.9454 29.4564L14.8149 29.4508C14.7936 29.4498 14.7724 29.4487 14.7514 29.4476L14.6278 29.4404L14.5086 29.4323L14.3937 29.4234L14.2291 29.4087L14.1245 29.3983L13.9748 29.3819L13.7881 29.3593L13.6155 29.3368L13.2735 29.2908L13.1725 29.2784L13.0772 29.2681L13.0168 29.2625L12.9874 29.2602C10.7098 29.0915 8.8482 27.3168 8.8482 25.0856C8.8482 24.4991 8.97625 23.9418 9.20657 23.4388C8.63706 22.7468 8.2963 21.8677 8.2963 20.911C8.2963 19.8297 8.73149 18.8477 9.44023 18.1227C9.23613 17.6093 9.12414 17.0509 9.12414 16.467C9.12414 15.0469 9.78652 13.7779 10.8262 12.938C10.8109 12.8326 10.8032 12.726 10.7974 12.6183L10.7865 12.4016C10.7846 12.3653 10.7824 12.3289 10.7798 12.2924C10.174 3.7387 30.2378 7.44874 33.4412 8.718C33.6084 8.78423 33.7679 8.94204 33.9176 9.17636C34.3314 8.92222 34.8062 8.75082 35.3193 8.68734L40.7214 8.01898C41.5143 7.92093 42.2492 8.43978 42.4019 9.20543C42.8444 11.4231 43.0657 13.7583 43.0657 16.2108C43.0657 18.7402 42.8303 21.2697 42.3596 23.7991C42.2226 24.5345 41.5458 25.055 40.7812 25.0131L34.908 24.6901C34.584 24.6723 34.2757 24.6005 33.992 24.4838C33.6354 25.2731 33.2034 25.9972 32.7187 26.5298L31.9491 27.3761L31.7939 27.548L31.5706 27.7969L31.4278 27.9577L31.2895 28.115L31.1554 28.2692L31.0252 28.4208L30.8988 28.5704C30.878 28.5952 30.8574 28.6199 30.8369 28.6445L30.7154 28.792C30.6955 28.8165 30.6756 28.8409 30.6559 28.8654L30.5389 29.0118C29.8067 29.9384 29.2322 30.8617 28.5101 32.3537L28.3948 32.5941C28.3171 32.7576 28.2375 32.9277 28.1558 33.1052L28.0315 33.3769L27.9037 33.6601L27.7721 33.9552L27.6365 34.2628L27.4965 34.5833L27.352 34.9173L27.2026 35.2653L27.048 35.6276L26.806 36.1994L26.6374 36.6001L26.3732 37.2317L26.189 37.6739C26.1604 37.7426 26.1529 37.8363 26.1577 37.9505L26.1607 38.0046L26.1652 38.0614L26.1745 38.1518L26.1949 38.3147L26.2286 38.5664L26.2478 38.7209L26.2609 38.8413L26.2687 38.9235C26.2699 38.9373 26.2711 38.9512 26.2722 38.9651L26.2784 39.0494C26.2794 39.0636 26.2803 39.0778 26.2811 39.0921L26.2853 39.1782C26.31 39.8001 26.2128 40.5084 25.671 41.1311C24.5369 42.4344 22.2464 42.0913 20.7647 40.6451Z" stroke="white" stroke-width="1.44086"/>
<path d="M33.9955 8.28467L33.9704 24.602" stroke="white" stroke-width="1.44086" stroke-linejoin="round"/>
</svg>
