<svg width="65" height="65" viewBox="0 0 65 65" fill="none" xmlns="http://www.w3.org/2000/svg">
<path fill-rule="evenodd" clip-rule="evenodd" d="M52.8125 12.1875H12.1875C8.82201 12.1875 6.09375 14.9158 6.09375 18.2812V46.7188C6.09375 50.0842 8.82201 52.8125 12.1875 52.8125H52.8125C56.178 52.8125 58.9062 50.0842 58.9062 46.7188V18.2812C58.9062 14.9158 56.178 12.1875 52.8125 12.1875ZM51.971 16.25H13.029L32.5 35.7195L51.971 16.25ZM10.1562 19.1226V45.6654L22.5429 31.5092L10.1562 19.1226ZM25.4219 34.3882L12.8553 48.75H52.1447L39.5781 34.3882L33.9363 40.0301C33.2041 40.7623 32.0519 40.8186 31.255 40.199L31.0637 40.0301L25.4219 34.3882ZM42.4571 31.5092L54.8438 45.6654V19.1226L42.4571 31.5092Z" fill="url(#paint0_linear_19_576)"/>
<defs>
<linearGradient id="paint0_linear_19_576" x1="6.09375" y1="12.1875" x2="6.09375" y2="52.8125" gradientUnits="userSpaceOnUse">
<stop offset="0.00169362" stop-color="#A300FF"/>
<stop offset="1" stop-color="#2C00FF"/>
</linearGradient>
</defs>
</svg>
