<svg width="64" height="56" viewBox="0 0 64 56" fill="none" xmlns="http://www.w3.org/2000/svg">
<path d="M51.3472 40.2788C52.4254 40.2788 53.2994 41.047 53.2994 41.9947C53.2994 42.8746 52.5458 43.5999 51.5749 43.699L51.3472 43.7105H12.3029C11.2247 43.7105 10.3507 42.9423 10.3507 41.9947C10.3507 41.1147 11.1043 40.3895 12.0753 40.2904L12.3029 40.2788H51.3472Z" fill="url(#paint0_linear_19_527)"/>
<path d="M51.3472 26.5518C52.4254 26.5518 53.2994 27.32 53.2994 28.2676C53.2994 29.1476 52.5458 29.8728 51.5749 29.9719L51.3472 29.9835H12.3029C11.2247 29.9835 10.3507 29.2153 10.3507 28.2676C10.3507 27.3877 11.1043 26.6624 12.0753 26.5633L12.3029 26.5518H51.3472Z" fill="url(#paint1_linear_19_527)"/>
<path d="M51.3472 12.8252C52.4254 12.8252 53.2994 13.5934 53.2994 14.5411C53.2994 15.421 52.5458 16.1462 51.5749 16.2454L51.3472 16.2569H12.3029C11.2247 16.2569 10.3507 15.4887 10.3507 14.5411C10.3507 13.6611 11.1043 12.9359 12.0753 12.8367L12.3029 12.8252H51.3472Z" fill="url(#paint2_linear_19_527)"/>
<defs>
<linearGradient id="paint0_linear_19_527" x1="10.3507" y1="40.2788" x2="10.3507" y2="43.7105" gradientUnits="userSpaceOnUse">
<stop offset="0.00169362" stop-color="#A300FF"/>
<stop offset="1" stop-color="#2C00FF"/>
</linearGradient>
<linearGradient id="paint1_linear_19_527" x1="10.3507" y1="26.5518" x2="10.3507" y2="29.9835" gradientUnits="userSpaceOnUse">
<stop offset="0.00169362" stop-color="#A300FF"/>
<stop offset="1" stop-color="#2C00FF"/>
</linearGradient>
<linearGradient id="paint2_linear_19_527" x1="10.3507" y1="12.8252" x2="10.3507" y2="16.2569" gradientUnits="userSpaceOnUse">
<stop offset="0.00169362" stop-color="#A300FF"/>
<stop offset="1" stop-color="#2C00FF"/>
</linearGradient>
</defs>
</svg>
