<svg width="35" height="36" viewBox="0 0 35 36" fill="none" xmlns="http://www.w3.org/2000/svg">
<path fill-rule="evenodd" clip-rule="evenodd" d="M5.75421 15.833C5.75421 10.3746 10.0943 5.94971 15.448 5.94971C20.8017 5.94971 25.1417 10.3746 25.1417 15.833C25.1417 21.2915 20.8017 25.7164 15.448 25.7164C10.0943 25.7164 5.75421 21.2915 5.75421 15.833ZM22.9875 15.833C22.9875 11.5876 19.612 8.146 15.448 8.146C11.284 8.146 7.90838 11.5876 7.90838 15.833C7.90838 20.0785 11.284 23.5201 15.448 23.5201C19.612 23.5201 22.9875 20.0785 22.9875 15.833Z" fill="url(#paint0_linear_19_503)"/>
<path d="M21.1488 21.6454C21.5371 21.2495 22.1481 21.2191 22.5706 21.554L22.6721 21.6454L29.1346 28.2343C29.5552 28.6631 29.5552 29.3584 29.1346 29.7873C28.7463 30.1831 28.1353 30.2136 27.7128 29.8786L27.6113 29.7873L21.1488 23.1984C20.7282 22.7695 20.7282 22.0742 21.1488 21.6454Z" fill="url(#paint1_linear_19_503)"/>
<defs>
<linearGradient id="paint0_linear_19_503" x1="5.75421" y1="5.94971" x2="5.75421" y2="25.7164" gradientUnits="userSpaceOnUse">
<stop offset="0.00169362" stop-color="#A300FF"/>
<stop offset="1" stop-color="#2C00FF"/>
</linearGradient>
<linearGradient id="paint1_linear_19_503" x1="20.8334" y1="21.3237" x2="20.8334" y2="30.1089" gradientUnits="userSpaceOnUse">
<stop offset="0.00169362" stop-color="#A300FF"/>
<stop offset="1" stop-color="#2C00FF"/>
</linearGradient>
</defs>
</svg>
