<svg width="32" height="36" viewBox="0 0 32 36" fill="none" xmlns="http://www.w3.org/2000/svg">
<path fill-rule="evenodd" clip-rule="evenodd" d="M5 16.0835C5 10.6815 9.02944 6.30225 14 6.30225C18.9706 6.30225 23 10.6815 23 16.0835C23 21.4855 18.9706 25.8647 14 25.8647C9.02944 25.8647 5 21.4855 5 16.0835ZM21 16.0835C21 11.8819 17.866 8.47586 14 8.47586C10.134 8.47586 7 11.8819 7 16.0835C7 20.2851 10.134 23.6911 14 23.6911C17.866 23.6911 21 20.2851 21 16.0835Z" fill="url(#paint0_linear_301_622)"/>
<path d="M19.2929 21.8359C19.6534 21.4441 20.2206 21.414 20.6129 21.7455L20.7071 21.8359L26.7071 28.3567C27.0976 28.7812 27.0976 29.4693 26.7071 29.8937C26.3466 30.2855 25.7794 30.3156 25.3871 29.9841L25.2929 29.8937L19.2929 23.3729C18.9024 22.9484 18.9024 22.2603 19.2929 21.8359Z" fill="url(#paint1_linear_301_622)"/>
<defs>
<linearGradient id="paint0_linear_301_622" x1="5" y1="6.30225" x2="5" y2="25.8647" gradientUnits="userSpaceOnUse">
<stop offset="0.00169362" stop-color="#A300FF"/>
<stop offset="1" stop-color="#2C00FF"/>
</linearGradient>
<linearGradient id="paint1_linear_301_622" x1="19" y1="21.5176" x2="19" y2="30.212" gradientUnits="userSpaceOnUse">
<stop offset="0.00169362" stop-color="#A300FF"/>
<stop offset="1" stop-color="#2C00FF"/>
</linearGradient>
</defs>
</svg>
