<svg width="65" height="65" viewBox="0 0 65 65" fill="none" xmlns="http://www.w3.org/2000/svg">
<path fill-rule="evenodd" clip-rule="evenodd" d="M29.7812 6.10443L30.1444 6.09375H34.8558C38.0251 6.09375 40.6653 8.5231 40.9285 11.6811L41.1268 14.0563L41.337 14.1525C42.2535 14.5891 43.1354 15.0939 43.9757 15.6621L44.1717 15.7991L46.3153 14.7915C49.0674 13.4943 52.3331 14.4302 53.9919 16.9355L54.1907 17.2568L56.5464 21.337C58.1311 24.0817 57.3473 27.5828 54.7442 29.3896L52.841 30.7084L52.8657 30.9566C52.8849 31.2124 52.8994 31.469 52.9091 31.7263L52.9235 32.5C52.9235 33.017 52.9042 33.5317 52.8657 34.0434L52.841 34.2895L54.7437 35.6101C57.2432 37.3449 58.0655 40.641 56.7253 43.3302L56.5464 43.663L54.1907 47.7432C52.6061 50.4879 49.1821 51.5597 46.3155 50.2086L44.1717 49.1989L43.9762 49.3376C43.1363 49.9056 42.2547 50.4102 41.3386 50.8467L41.1289 50.9417L40.9285 53.3186C40.6754 56.3554 38.2247 58.7183 35.219 58.8956L34.8558 58.9062H30.1444C26.9751 58.9062 24.3349 56.4769 24.0717 53.319L23.8632 50.83L23.4845 50.6511C22.7279 50.2701 21.9962 49.842 21.2935 49.3697L20.9606 49.1359L18.6849 50.2085C15.9328 51.5057 12.6671 50.5698 11.0083 48.0645L10.8095 47.7432L8.45377 43.663C6.86912 40.9183 7.65289 37.4172 10.2558 35.6105L12.3664 34.1433L12.3506 33.9644C12.3333 33.7216 12.3203 33.4781 12.3116 33.234L12.2985 32.5C12.2985 32.0093 12.316 31.5205 12.3507 31.0344L12.3664 30.8527L10.2565 29.3899C7.75703 27.6551 6.93473 24.359 8.27494 21.6698L8.45377 21.337L10.8095 17.2568C12.3941 14.5121 15.8181 13.4403 18.6839 14.791L20.9606 15.862L21.2935 15.6303C21.9962 15.158 22.7279 14.7299 23.4845 14.3489L23.8632 14.168L24.0717 11.6814C24.3248 8.64457 26.7755 6.2817 29.7812 6.10443ZM34.8558 10.1562H30.1444C29.088 10.1562 28.2079 10.966 28.1201 12.0192L27.7081 16.9513L26.5466 17.4188C25.0772 18.0103 23.7029 18.8151 22.4663 19.8048L21.4778 20.5959L16.9528 18.4663C15.9972 18.0159 14.8559 18.3731 14.3277 19.288L11.972 23.3682C11.4438 24.2831 11.705 25.4502 12.5728 26.0525L16.7062 28.9209L16.5275 30.1633C16.417 30.9321 16.361 31.7122 16.361 32.5C16.361 33.2872 16.4169 34.0667 16.5273 34.8349L16.7057 36.0765L12.5729 38.9474C11.705 39.5498 11.4438 40.7169 11.972 41.6318L14.3277 45.712C14.8559 46.6269 15.9972 46.9841 16.9539 46.5332L21.4778 44.4041L22.4663 45.1952C23.7029 46.1849 25.0772 46.9897 26.5466 47.5812L27.7081 48.0487L28.1202 52.9812C28.2079 54.034 29.088 54.8438 30.1444 54.8438H34.8558C35.9122 54.8438 36.7923 54.034 36.8802 52.9797L37.2887 48.1194L38.4733 47.661C39.99 47.0741 41.4086 46.2612 42.6837 45.2526L43.6709 44.4716L48.0474 46.5337C49.003 46.9841 50.1443 46.6269 50.6725 45.712L53.0282 41.6318C53.5564 40.7169 53.2952 39.5498 52.4269 38.9471L48.4866 36.2108L48.6764 34.9596C48.799 34.1512 48.861 33.3299 48.861 32.5C48.861 31.6701 48.799 30.8488 48.6764 30.0404L48.4866 28.7892L52.4273 26.0525C53.2952 25.4502 53.5564 24.2831 53.0282 23.3682L50.6725 19.288C50.1443 18.3731 49.003 18.0159 48.0471 18.4664L43.6709 20.5284L42.6837 19.7474C41.4081 18.7384 39.9888 17.9252 38.4715 17.3383L37.286 16.8797L36.88 12.0188C36.7923 10.966 35.9122 10.1562 34.8558 10.1562Z" fill="url(#paint0_linear_19_540)"/>
<path fill-rule="evenodd" clip-rule="evenodd" d="M22.4546 32.5C22.4546 26.8909 27.0017 22.3438 32.6108 22.3438C38.22 22.3438 42.7671 26.8909 42.7671 32.5C42.7671 38.1091 38.22 42.6562 32.6108 42.6562C27.0017 42.6562 22.4546 38.1091 22.4546 32.5ZM38.7046 32.5C38.7046 29.1345 35.9763 26.4062 32.6108 26.4062C29.2454 26.4062 26.5171 29.1345 26.5171 32.5C26.5171 35.8655 29.2454 38.5938 32.6108 38.5938C35.9763 38.5938 38.7046 35.8655 38.7046 32.5Z" fill="url(#paint1_linear_19_540)"/>
<defs>
<linearGradient id="paint0_linear_19_540" x1="7.67883" y1="6.18319" x2="7.67883" y2="58.9063" gradientUnits="userSpaceOnUse">
<stop stop-color="#A300FF"/>
<stop offset="1" stop-color="#2C00FF"/>
</linearGradient>
<linearGradient id="paint1_linear_19_540" x1="22.4546" y1="22.3438" x2="22.4546" y2="42.6562" gradientUnits="userSpaceOnUse">
<stop offset="0.00169362" stop-color="#A300FF"/>
<stop offset="1" stop-color="#2C00FF"/>
</linearGradient>
</defs>
</svg>
