<svg width="65" height="65" viewBox="0 0 65 65" fill="none" xmlns="http://www.w3.org/2000/svg">
<path fill-rule="evenodd" clip-rule="evenodd" d="M20.3125 18.2812C20.3125 11.5503 25.769 6.09375 32.5 6.09375C39.231 6.09375 44.6875 11.5503 44.6875 18.2812C44.6875 25.0122 39.231 30.4688 32.5 30.4688C25.769 30.4688 20.3125 25.0122 20.3125 18.2812ZM40.625 18.2812C40.625 13.7939 36.9873 10.1562 32.5 10.1562C28.0127 10.1562 24.375 13.7939 24.375 18.2812C24.375 22.7686 28.0127 26.4062 32.5 26.4062C36.9873 26.4062 40.625 22.7686 40.625 18.2812Z" fill="url(#paint0_linear_19_556)"/>
<path fill-rule="evenodd" clip-rule="evenodd" d="M12.1875 50.3307C12.1875 40.4119 21.3422 32.5 32.5 32.5C43.6578 32.5 52.8125 40.4119 52.8125 50.3307C52.8125 61.7648 12.1875 61.7648 12.1875 50.3307ZM48.75 50.3307C48.75 42.7979 41.5351 36.5625 32.5 36.5625C23.4649 36.5625 16.25 42.7979 16.25 50.3307C16.25 52.5981 20.8646 54.0112 26.6161 54.5698L27.9619 54.6835C30.9149 54.8972 34.0851 54.8972 37.0381 54.6835L38.3839 54.5698C44.1354 54.0112 48.75 52.5981 48.75 50.3307Z" fill="url(#paint1_linear_19_556)"/>
<defs>
<linearGradient id="paint0_linear_19_556" x1="20.3125" y1="6.09375" x2="20.3125" y2="30.4688" gradientUnits="userSpaceOnUse">
<stop offset="0.00169362" stop-color="#A300FF"/>
<stop offset="1" stop-color="#2C00FF"/>
</linearGradient>
<linearGradient id="paint1_linear_19_556" x1="12.1875" y1="32.5" x2="12.1875" y2="58.9062" gradientUnits="userSpaceOnUse">
<stop offset="0.00169362" stop-color="#A300FF"/>
<stop offset="1" stop-color="#2C00FF"/>
</linearGradient>
</defs>
</svg>
