<svg width="62" height="65" viewBox="0 0 62 65" fill="none" xmlns="http://www.w3.org/2000/svg">
<path d="M27.6925 10.7512C28.4491 9.95794 29.6759 9.95794 30.4325 10.7512C31.131 11.4834 31.1847 12.6356 30.5937 13.4325L30.4325 13.6238L12.4291 32.5L30.4325 51.3762C31.131 52.1084 31.1847 53.2606 30.5937 54.0575L30.4325 54.2488C29.7341 54.981 28.6351 55.0374 27.875 54.4178L27.6925 54.2488L8.31748 33.9363C7.61904 33.2041 7.56532 32.0519 8.1563 31.255L8.31748 31.0637L27.6925 10.7512Z" fill="url('#paint0_linear_28_455')"></path>
<path d="M13.5625 34.5312C12.4924 34.5312 11.625 33.6218 11.625 32.5C11.625 31.4583 12.373 30.5998 13.3365 30.4824L13.5625 30.4688L52.3125 30.4688C53.3826 30.4688 54.25 31.3782 54.25 32.5C54.25 33.5417 53.502 34.4002 52.5385 34.5176L52.3125 34.5312H13.5625Z" fill="url('#paint1_linear_28_455')"></path>
<defs>
<linearGradient id="paint0_linear_28_455" x1="7.75" y1="10.1562" x2="7.75" y2="54.8438" gradientUnits="userSpaceOnUse">
<stop offset="0.00169362" stop-color="#A300FF"></stop>
<stop offset="1" stop-color="#2C00FF"></stop>
</linearGradient>
<linearGradient id="paint1_linear_28_455" x1="11.625" y1="30.4688" x2="11.625" y2="34.5312" gradientUnits="userSpaceOnUse">
<stop offset="0.00169362" stop-color="#A300FF"></stop>
<stop offset="1" stop-color="#2C00FF"></stop>
</linearGradient>
</defs>
</svg>
