<svg width="61" height="65" viewBox="0 0 61 65" fill="none" xmlns="http://www.w3.org/2000/svg">
<path d="M27.2458 10.7512C27.9903 9.95794 29.1972 9.95794 29.9417 10.7512C30.6288 11.4834 30.6817 12.6356 30.1003 13.4325L29.9417 13.6238L12.2286 32.5L29.9417 51.3762C30.6288 52.1084 30.6817 53.2606 30.1003 54.0575L29.9417 54.2488C29.2545 54.981 28.1732 55.0374 27.4254 54.4178L27.2458 54.2488L8.18333 33.9363C7.49616 33.2041 7.4433 32.0519 8.02475 31.255L8.18333 31.0637L27.2458 10.7512Z" fill="url('#paint0_linear_28_412')"></path>
<path d="M13.3438 34.5312C12.291 34.5312 11.4375 33.6218 11.4375 32.5C11.4375 31.4583 12.1734 30.5998 13.1214 30.4824L13.3438 30.4688L51.4688 30.4688C52.5215 30.4688 53.375 31.3782 53.375 32.5C53.375 33.5417 52.6391 34.4002 51.6911 34.5176L51.4688 34.5312H13.3438Z" fill="url('#paint1_linear_28_412')"></path>
<defs>
<linearGradient id="paint0_linear_28_412" x1="7.625" y1="10.1562" x2="7.625" y2="54.8438" gradientUnits="userSpaceOnUse">
<stop offset="0.00169362" stop-color="#A300FF"></stop>
<stop offset="1" stop-color="#2C00FF"></stop>
</linearGradient>
<linearGradient id="paint1_linear_28_412" x1="11.4375" y1="30.4688" x2="11.4375" y2="34.5312" gradientUnits="userSpaceOnUse">
<stop offset="0.00169362" stop-color="#A300FF"></stop>
<stop offset="1" stop-color="#2C00FF"></stop>
</linearGradient>
</defs>
</svg>
