<svg width="19" height="19" viewBox="0 0 19 19" fill="none" xmlns="http://www.w3.org/2000/svg">
<path d="M9.00699 16.1801C12.7378 16.1801 15.7623 13.1275 15.7623 9.36188C15.7623 5.5963 12.7378 2.5437 9.00699 2.5437C5.27615 2.5437 2.25171 5.5963 2.25171 9.36188C2.25171 13.1275 5.27615 16.1801 9.00699 16.1801Z" stroke="white" stroke-linecap="round" stroke-linejoin="round"></path>
<path d="M10.5082 7.84676C10.5082 7.44491 10.35 7.05953 10.0685 6.77538C9.787 6.49124 9.40517 6.3316 9.00703 6.3316C8.6089 6.3316 8.22707 6.49124 7.94554 6.77538C7.66402 7.05953 7.50586 7.44491 7.50586 7.84676V10.8771C7.50586 11.2789 7.66402 11.6643 7.94554 11.9484C8.22707 12.2326 8.6089 12.3922 9.00703 12.3922C9.40517 12.3922 9.787 12.2326 10.0685 11.9484C10.35 11.6643 10.5082 11.2789 10.5082 10.8771" stroke="white" stroke-linecap="round" stroke-linejoin="round"></path>
</svg>
