<svg width="87" height="61" viewBox="0 0 87 61" fill="none" xmlns="http://www.w3.org/2000/svg">
<rect width="87" height="61" fill="#A300FF"></rect>
<path d="M40.7812 19.9777H7.25V41.1497C7.25 41.3022 7.25 41.4547 7.28625 41.5818H40.7812V19.9777ZM27.8799 16.1652H40.7849V5.0835H27.9886V15.8602C27.9886 15.9618 27.9161 16.0635 27.8799 16.1652ZM22.5439 15.8602V5.49016C14.4964 6.65933 9.24012 10.421 7.71762 16.1652H22.6164C22.5801 16.0635 22.5439 15.9618 22.5439 15.8602ZM58.7975 5.0835H46.2188V16.1652H58.7975V5.0835ZM64.1987 16.1601H79.2788C77.7563 10.3651 72.4275 6.578 64.235 5.45966V16.0838C64.235 16.1092 64.1987 16.1347 64.1987 16.1601ZM64.2314 55.5356C72.1701 54.4427 77.3901 50.8843 79.0939 45.3943H64.2314V55.5356ZM58.7975 45.3943H46.2188V55.9168H58.7975V45.3943ZM46.2188 41.5818H79.7138C79.75 41.4547 79.75 41.3022 79.75 41.1497V19.9777H46.2188V41.5818ZM40.7776 45.3943H27.9814V55.9168H40.7776V45.3943ZM7.9025 45.3943C9.60625 50.8335 14.7537 54.3918 22.5475 55.5102V45.3943H7.9025Z" fill="white"></path>
</svg>
