<svg width="45" height="48" viewBox="0 0 45 48" fill="none" xmlns="http://www.w3.org/2000/svg">
<path fill-rule="evenodd" clip-rule="evenodd" d="M18.4265 40.6448C17.6347 39.8006 17.2165 38.7447 17.2116 37.7922C16.9769 36.8799 17.1761 35.3948 17.4975 33.8772L17.5465 33.6494L17.5972 33.4215C17.6058 33.3836 17.6144 33.3456 17.6231 33.3077L17.6757 33.0805L17.7294 32.8542L17.7838 32.6292L17.8663 32.2951L17.977 31.8582L18.0594 31.5386L18.3668 30.3589L18.4342 30.0955L18.4963 29.8474L18.5343 29.6912C18.5404 29.6658 18.5464 29.6407 18.5522 29.616L18.5857 29.4717C18.5963 29.4249 18.6064 29.3796 18.6159 29.3358L18.6425 29.2087C18.692 28.9638 18.7188 28.7743 18.7145 28.6548C17.4724 28.9883 16.4354 29.1941 15.5652 29.3149L15.3673 29.3412L15.1753 29.3647C14.923 29.3941 14.686 29.4161 14.4632 29.4319L14.2986 29.4426C14.2716 29.4442 14.2449 29.4457 14.2183 29.4471L14.0615 29.4545C14.0358 29.4556 14.0103 29.4566 13.9851 29.4575L13.8358 29.4619C13.7869 29.463 13.7387 29.4639 13.6914 29.4645L13.5518 29.4653L13.4168 29.4645C13.3726 29.464 13.3292 29.4632 13.2865 29.4622L13.1605 29.4585C13.1399 29.4577 13.1195 29.457 13.0992 29.4561L12.9798 29.4506C12.9602 29.4495 12.9409 29.4485 12.9216 29.4474L12.8085 29.4402L12.6993 29.4321L12.5941 29.4231L12.4435 29.4085L12.3477 29.3981L12.2106 29.3817L12.0398 29.3591L11.8817 29.3365L11.5687 29.2906L11.4762 29.2782L11.389 29.2678L11.3336 29.2623L11.3068 29.26C9.22171 29.0912 7.5175 27.3166 7.5175 25.0854C7.5175 24.4988 7.63473 23.9415 7.84557 23.4386C7.32421 22.7466 7.01226 21.8675 7.01226 20.9107C7.01226 19.8295 7.41066 18.8475 8.05948 18.1224C7.87263 17.6091 7.77011 17.0507 7.77011 16.4668C7.77011 15.0467 8.37649 13.7776 9.32825 12.9378C9.31426 12.8324 9.3072 12.7257 9.30187 12.6181L9.29195 12.4014C9.29017 12.3651 9.28819 12.3287 9.28582 12.2922C8.73123 3.73846 27.0987 7.4485 30.0313 8.71776C30.1843 8.78399 30.3304 8.94179 30.4675 9.17612C30.8462 8.92197 31.2809 8.75057 31.7506 8.68709L36.696 8.01874C37.4218 7.92069 38.0946 8.43954 38.2344 9.20518C38.6395 11.4229 38.8421 13.758 38.8421 16.2105C38.8421 18.74 38.6266 21.2694 38.1957 23.7989C38.0703 24.5342 37.4507 25.0548 36.7507 25.0129L31.3741 24.6899C31.0775 24.6721 30.7952 24.6002 30.5355 24.4836C30.2091 25.2728 29.8136 25.997 29.3699 26.5296L28.6654 27.3759L28.5233 27.5477L28.3189 27.7967L28.1881 27.9575L28.0615 28.1147L27.9387 28.2689L27.8196 28.4205L27.7038 28.5701C27.6848 28.5949 27.6659 28.6196 27.6471 28.6443L27.536 28.7917C27.5177 28.8162 27.4995 28.8407 27.4815 28.8651L27.3744 29.0115C26.704 29.9381 26.1782 30.8615 25.5171 32.3534L25.4115 32.5938C25.3404 32.7573 25.2675 32.9275 25.1927 33.1049L25.079 33.3767L24.962 33.6598L24.8415 33.955L24.7174 34.2626L24.5892 34.5831L24.4569 34.9171L24.3201 35.265L24.1786 35.6274L23.957 36.1992L23.8027 36.5999L23.5608 37.2315L23.3922 37.6736C23.366 37.7423 23.3592 37.8361 23.3635 37.9502L23.3663 38.0043L23.3705 38.0612L23.379 38.1515L23.3976 38.3145L23.4285 38.5661L23.4461 38.7206L23.4581 38.841L23.4652 38.9232C23.4663 38.937 23.4674 38.9509 23.4684 38.9649L23.4741 39.0492C23.475 39.0633 23.4758 39.0775 23.4765 39.0918L23.4804 39.178C23.503 39.7999 23.414 40.5082 22.918 41.1309C21.8798 42.4342 19.783 42.091 18.4265 40.6448Z" stroke="white" stroke-width="1.44086"></path>
<path d="M30.5387 8.28467L30.5158 24.602" stroke="white" stroke-width="1.44086" stroke-linejoin="round"></path>
</svg>
