<svg width="45" height="48" viewBox="0 0 45 48" fill="none" xmlns="http://www.w3.org/2000/svg">
<path fill-rule="evenodd" clip-rule="evenodd" d="M25.9571 7.35518C26.7489 8.19937 27.1671 9.25531 27.172 10.2078C27.4067 11.1201 27.2075 12.6052 26.8861 14.1228L26.8371 14.3506L26.7864 14.5785C26.7778 14.6164 26.7692 14.6544 26.7605 14.6923L26.7079 14.9195L26.6543 15.1458L26.5998 15.3708L26.5173 15.7049L26.4066 16.1418L26.3243 16.4614L26.0168 17.6411L25.9494 17.9045L25.8873 18.1526L25.8493 18.3088C25.8432 18.3342 25.8372 18.3593 25.8314 18.384L25.7979 18.5283C25.7873 18.5751 25.7772 18.6204 25.7677 18.6642L25.7411 18.7913C25.6916 19.0362 25.6648 19.2257 25.6691 19.3452C26.9112 19.0117 27.9483 18.8059 28.8184 18.6851L29.0163 18.6588L29.2084 18.6353C29.4606 18.6059 29.6976 18.5839 29.9204 18.5681L30.085 18.5574C30.112 18.5558 30.1387 18.5543 30.1653 18.5529L30.3221 18.5455C30.3478 18.5444 30.3733 18.5434 30.3986 18.5425L30.5478 18.5381C30.5968 18.537 30.6449 18.5361 30.6922 18.5355L30.8318 18.5347L30.9668 18.5355C31.011 18.536 31.0544 18.5368 31.0971 18.5378L31.2231 18.5415C31.2437 18.5423 31.2641 18.543 31.2844 18.5439L31.4038 18.5494C31.4234 18.5505 31.4428 18.5515 31.462 18.5526L31.5751 18.5598L31.6843 18.5679L31.7895 18.5769L31.9401 18.5915L32.0359 18.6019L32.173 18.6183L32.3438 18.6409L32.5019 18.6635L32.8149 18.7094L32.9074 18.7218L32.9946 18.7322L33.05 18.7377L33.0768 18.74C35.1619 18.9088 36.8661 20.6834 36.8661 22.9146C36.8661 23.5012 36.7489 24.0585 36.538 24.5614C37.0594 25.2534 37.3713 26.1325 37.3713 27.0893C37.3713 28.1705 36.9729 29.1525 36.3241 29.8776C36.511 30.3909 36.6135 30.9493 36.6135 31.5332C36.6135 32.9533 36.0071 34.2224 35.0554 35.0622C35.0693 35.1676 35.0764 35.2743 35.0817 35.3819L35.0917 35.5986C35.0934 35.6349 35.0954 35.6713 35.0978 35.7078C35.6524 44.2615 17.2849 40.5515 14.3523 39.2822C14.1993 39.216 14.0533 39.0582 13.9161 38.8239C13.5374 39.078 13.1027 39.2494 12.633 39.3129L7.6876 39.9813C6.96179 40.0793 6.28901 39.5605 6.1492 38.7948C5.74407 36.5771 5.5415 34.242 5.5415 31.7895C5.5415 29.26 5.75697 26.7306 6.18791 24.2011C6.31335 23.4658 6.93294 22.9452 7.63287 22.9871L13.0095 23.3101C13.3061 23.3279 13.5884 23.3998 13.8481 23.5164C14.1745 22.7272 14.57 22.003 15.0137 21.4704L15.7182 20.6241L15.8603 20.4523L16.0647 20.2033L16.1955 20.0425L16.3221 19.8853L16.4449 19.7311L16.564 19.5795L16.6798 19.4299C16.6988 19.4051 16.7177 19.3804 16.7365 19.3557L16.8476 19.2083C16.8659 19.1838 16.8841 19.1593 16.9021 19.1349L17.0092 18.9885C17.6796 18.0619 18.2054 17.1385 18.8665 15.6466L18.9721 15.4062C19.0432 15.2427 19.1161 15.0725 19.1909 14.8951L19.3046 14.6233L19.4216 14.3402L19.5421 14.045L19.6663 13.7374L19.7944 13.4169L19.9267 13.0829L20.0635 12.735L20.205 12.3726L20.4266 11.8008L20.5809 11.4001L20.8228 10.7685L20.9914 10.3264C21.0176 10.2577 21.0244 10.1639 21.0201 10.0498L21.0173 9.99568L21.0131 9.9388L21.0046 9.84848L20.986 9.6855L20.9551 9.43389L20.9375 9.27937L20.9255 9.15899L20.9184 9.07679C20.9173 9.06296 20.9162 9.04908 20.9152 9.03514L20.9095 8.95083C20.9086 8.93667 20.9078 8.92245 20.9071 8.90819L20.9032 8.822C20.8806 8.20015 20.9696 7.49182 21.4656 6.86913C22.5038 5.56582 24.6006 5.90895 25.9571 7.35518Z" stroke="white" stroke-width="1.44086"></path>
<path d="M13.8449 39.7153L13.8678 23.398" stroke="white" stroke-width="1.44086" stroke-linejoin="round"></path>
</svg>
