<svg width="45" height="48" viewBox="0 0 45 48" fill="none" xmlns="http://www.w3.org/2000/svg">
<path fill-rule="evenodd" clip-rule="evenodd" d="M26.229 7.35518C27.0141 8.19937 27.4288 9.25531 27.4337 10.2078C27.6664 11.1201 27.4688 12.6052 27.1502 14.1228L27.1016 14.3506L27.0513 14.5785C27.0428 14.6164 27.0343 14.6544 27.0257 14.6923L26.9735 14.9195L26.9203 15.1458L26.8663 15.3708L26.7845 15.7049L26.6748 16.1418L26.5931 16.4614L26.2882 17.6411L26.2214 17.9045L26.1598 18.1526L26.1221 18.3088C26.1161 18.3342 26.1102 18.3593 26.1044 18.384L26.0712 18.5283C26.0607 18.5751 26.0507 18.6204 26.0413 18.6642L26.0149 18.7913C25.9658 19.0362 25.9392 19.2257 25.9435 19.3452C27.1751 19.0117 28.2033 18.8059 29.0662 18.6851L29.2623 18.6588L29.4528 18.6353C29.7029 18.6059 29.9378 18.5839 30.1588 18.5681L30.322 18.5574C30.3487 18.5558 30.3753 18.5543 30.4016 18.5529L30.557 18.5455C30.5825 18.5444 30.6078 18.5434 30.6329 18.5425L30.7809 18.5381C30.8294 18.537 30.8771 18.5361 30.9241 18.5355L31.0625 18.5347L31.1963 18.5355C31.2401 18.536 31.2832 18.5368 31.3256 18.5378L31.4504 18.5415C31.4709 18.5423 31.4911 18.543 31.5112 18.5439L31.6296 18.5494C31.649 18.5505 31.6682 18.5515 31.6873 18.5526L31.7995 18.5598L31.9077 18.5679L32.012 18.5769L32.1614 18.5915L32.2564 18.6019L32.3923 18.6183L32.5617 18.6409L32.7184 18.6635L33.0288 18.7094L33.1205 18.7218L33.207 18.7322L33.2619 18.7377L33.2885 18.74C35.3559 18.9088 37.0457 20.6834 37.0457 22.9146C37.0457 23.5012 36.9294 24.0585 36.7204 24.5614C37.2373 25.2534 37.5466 26.1325 37.5466 27.0893C37.5466 28.1705 37.1516 29.1525 36.5083 29.8776C36.6936 30.3909 36.7952 30.9493 36.7952 31.5332C36.7952 32.9533 36.194 34.2224 35.2503 35.0622C35.2641 35.1676 35.2711 35.2743 35.2764 35.3819L35.2863 35.5986C35.288 35.6349 35.29 35.6713 35.2923 35.7078C35.8422 44.2615 17.6302 40.5515 14.7225 39.2822C14.5708 39.216 14.426 39.0582 14.2901 38.8239C13.9145 39.078 13.4835 39.2494 13.0177 39.3129L8.11425 39.9813C7.39458 40.0793 6.72751 39.5605 6.58887 38.7948C6.18718 36.5771 5.98633 34.242 5.98633 31.7895C5.98633 29.26 6.19997 26.7306 6.62726 24.2011C6.75164 23.4658 7.36598 22.9452 8.05998 22.9871L13.3911 23.3101C13.6852 23.3279 13.965 23.3998 14.2225 23.5164C14.5463 22.7272 14.9384 22.003 15.3783 21.4704L16.0769 20.6241L16.2178 20.4523L16.4204 20.2033L16.5501 20.0425L16.6756 19.8853L16.7974 19.7311L16.9155 19.5795L17.0303 19.4299C17.0491 19.4051 17.0679 19.3804 17.0865 19.3557L17.1967 19.2083C17.2148 19.1838 17.2329 19.1593 17.2508 19.1349L17.3569 18.9885C18.0216 18.0619 18.543 17.1385 19.1985 15.6466L19.3032 15.4062C19.3737 15.2427 19.4459 15.0725 19.5201 14.8951L19.6329 14.6233L19.7489 14.3402L19.8683 14.045L19.9915 13.7374L20.1185 13.4169L20.2497 13.0829L20.3854 12.735L20.5257 12.3726L20.7453 11.8008L20.8983 11.4001L21.1382 10.7685L21.3054 10.3264C21.3313 10.2577 21.3381 10.1639 21.3338 10.0498L21.3311 9.99568L21.327 9.9388L21.3185 9.84848L21.3 9.6855L21.2694 9.43389L21.252 9.27937L21.2401 9.15899L21.233 9.07679C21.2319 9.06296 21.2308 9.04908 21.2298 9.03514L21.2242 8.95083C21.2233 8.93667 21.2225 8.92245 21.2218 8.90819L21.218 8.822C21.1955 8.20015 21.2837 7.49182 21.7756 6.86913C22.805 5.56582 24.884 5.90895 26.229 7.35518Z" stroke="white" stroke-width="1.44086"></path>
<path d="M14.2195 39.7153L14.2423 23.398" stroke="white" stroke-width="1.44086" stroke-linejoin="round"></path>
</svg>
