<svg width="45" height="48" viewBox="0 0 45 48" fill="none" xmlns="http://www.w3.org/2000/svg">
<path fill-rule="evenodd" clip-rule="evenodd" d="M25.9571 7.35493C26.7489 8.19912 27.1671 9.25506 27.172 10.2076C27.4067 11.1198 27.2075 12.605 26.8861 14.1225L26.8371 14.3503L26.7864 14.5782C26.7778 14.6162 26.7692 14.6541 26.7605 14.6921L26.7079 14.9193L26.6543 15.1456L26.5998 15.3706L26.5173 15.7046L26.4066 16.1416L26.3243 16.4611L26.0168 17.6408L25.9494 17.9043L25.8873 18.1524L25.8493 18.3086C25.8432 18.334 25.8372 18.359 25.8314 18.3838L25.7979 18.5281C25.7873 18.5748 25.7772 18.6201 25.7677 18.664L25.7411 18.791C25.6916 19.036 25.6648 19.2255 25.6691 19.3449C26.9112 19.0115 27.9483 18.8056 28.8184 18.6849L29.0163 18.6585L29.2084 18.635C29.4606 18.6056 29.6976 18.5837 29.9204 18.5679L30.085 18.5572C30.112 18.5556 30.1387 18.5541 30.1653 18.5527L30.3221 18.5452C30.3478 18.5442 30.3733 18.5432 30.3986 18.5423L30.5478 18.5379C30.5968 18.5367 30.6449 18.5359 30.6922 18.5353L30.8318 18.5345L30.9668 18.5353C31.011 18.5358 31.0544 18.5366 31.0971 18.5376L31.2231 18.5413C31.2437 18.542 31.2641 18.5428 31.2844 18.5436L31.4038 18.5492C31.4234 18.5502 31.4428 18.5513 31.462 18.5524L31.5751 18.5596L31.6843 18.5677L31.7895 18.5766L31.9401 18.5913L32.0359 18.6017L32.173 18.6181L32.3438 18.6407L32.5019 18.6632L32.8149 18.7092L32.9074 18.7216L32.9946 18.7319L33.05 18.7375L33.0768 18.7398C35.1619 18.9085 36.8661 20.6832 36.8661 22.9144C36.8661 23.5009 36.7489 24.0582 36.538 24.5612C37.0594 25.2532 37.3713 26.1323 37.3713 27.089C37.3713 28.1703 36.9729 29.1523 36.3241 29.8773C36.511 30.3907 36.6135 30.9491 36.6135 31.533C36.6135 32.9531 36.0071 34.2221 35.0554 35.062C35.0693 35.1674 35.0764 35.274 35.0817 35.3817L35.0917 35.5984C35.0934 35.6347 35.0954 35.6711 35.0978 35.7076C35.6524 44.2613 17.2849 40.5513 14.3523 39.282C14.1993 39.2158 14.0533 39.058 13.9161 38.8236C13.5374 39.0778 13.1027 39.2492 12.633 39.3127L7.6876 39.981C6.96179 40.0791 6.28901 39.5602 6.1492 38.7946C5.74407 36.5769 5.5415 34.2417 5.5415 31.7892C5.5415 29.2598 5.75697 26.7303 6.18791 24.2009C6.31335 23.4655 6.93294 22.945 7.63287 22.9869L13.0095 23.3099C13.3061 23.3277 13.5884 23.3995 13.8481 23.5162C14.1745 22.7269 14.57 22.0028 15.0137 21.4702L15.7182 20.6239L15.8603 20.452L16.0647 20.2031L16.1955 20.0423L16.3221 19.885L16.4449 19.7308L16.564 19.5792L16.6798 19.4296C16.6988 19.4048 16.7177 19.3801 16.7365 19.3555L16.8476 19.208C16.8659 19.1835 16.8841 19.1591 16.9021 19.1346L17.0092 18.9882C17.6796 18.0616 18.2054 17.1383 18.8665 15.6463L18.9721 15.4059C19.0432 15.2424 19.1161 15.0723 19.1909 14.8948L19.3046 14.6231L19.4216 14.3399L19.5421 14.0448L19.6663 13.7372L19.7944 13.4167L19.9267 13.0827L20.0635 12.7347L20.205 12.3724L20.4266 11.8006L20.5809 11.3999L20.8228 10.7683L20.9914 10.3261C21.0176 10.2574 21.0244 10.1637 21.0201 10.0495L21.0173 9.99544L21.0131 9.93856L21.0046 9.84824L20.986 9.68525L20.9551 9.43365L20.9375 9.27912L20.9255 9.15874L20.9184 9.07654C20.9173 9.06272 20.9162 9.04884 20.9152 9.0349L20.9095 8.95058C20.9086 8.93642 20.9078 8.92221 20.9071 8.90794L20.9032 8.82175C20.8806 8.1999 20.9696 7.49157 21.4656 6.86888C22.5038 5.56557 24.6006 5.90871 25.9571 7.35493Z" stroke="white" stroke-width="1.44086"></path>
<path d="M13.8449 39.7153L13.8679 23.398" stroke="white" stroke-width="1.44086" stroke-linejoin="round"></path>
</svg>
