<svg width="49" height="48" viewBox="0 0 49 48" fill="none" xmlns="http://www.w3.org/2000/svg">
<path fill-rule="evenodd" clip-rule="evenodd" d="M28.8955 7.35493C29.7604 8.19912 30.2172 9.25506 30.2226 10.2076C30.479 11.1198 30.2613 12.605 29.9103 14.1225L29.8567 14.3503L29.8014 14.5782C29.792 14.6162 29.7826 14.6541 29.7731 14.6921L29.7156 14.9193L29.657 15.1456L29.5976 15.3706L29.5074 15.7046L29.3865 16.1416L29.2966 16.4611L28.9607 17.6408L28.8871 17.9043L28.8192 18.1524L28.7777 18.3086C28.7711 18.334 28.7645 18.359 28.7582 18.3838L28.7216 18.5281C28.71 18.5748 28.699 18.6201 28.6886 18.664L28.6596 18.791C28.6055 19.036 28.5762 19.2255 28.5809 19.3449C29.9378 19.0115 31.0706 18.8056 32.0211 18.6849L32.2372 18.6585L32.447 18.635C32.7225 18.6056 32.9814 18.5837 33.2249 18.5679L33.4046 18.5572C33.4341 18.5556 33.4633 18.5541 33.4923 18.5527L33.6636 18.5452C33.6917 18.5442 33.7195 18.5432 33.7471 18.5423L33.9102 18.5379C33.9636 18.5367 34.0162 18.5359 34.0679 18.5353L34.2204 18.5345L34.3678 18.5353C34.4161 18.5358 34.4636 18.5366 34.5103 18.5376L34.6478 18.5413C34.6703 18.542 34.6927 18.5428 34.7148 18.5436L34.8452 18.5492C34.8666 18.5502 34.8878 18.5513 34.9088 18.5524L35.0324 18.5596L35.1516 18.5677L35.2665 18.5766L35.4311 18.5913L35.5357 18.6017L35.6854 18.6181L35.8721 18.6407L36.0447 18.6632L36.3867 18.7092L36.4877 18.7216L36.583 18.7319L36.6434 18.7375L36.6728 18.7398C38.9504 18.9085 40.812 20.6832 40.812 22.9144C40.812 23.5009 40.6839 24.0582 40.4536 24.5612C41.0231 25.2532 41.3639 26.1323 41.3639 27.089C41.3639 28.1703 40.9287 29.1523 40.22 29.8773C40.4241 30.3907 40.536 30.9491 40.536 31.533C40.536 32.9531 39.8737 34.2221 38.834 35.062C38.8493 35.1674 38.857 35.274 38.8628 35.3817L38.8737 35.5984C38.8756 35.6347 38.8778 35.6711 38.8804 35.7076C39.4862 44.2613 19.4224 40.5513 16.2189 39.282C16.0518 39.2158 15.8923 39.058 15.7425 38.8236C15.3288 39.0778 14.854 39.2492 14.3409 39.3127L8.93878 39.981C8.14593 40.0791 7.41103 39.5602 7.2583 38.7946C6.81575 36.5769 6.59448 34.2417 6.59448 31.7892C6.59448 29.2598 6.82985 26.7303 7.30059 24.2009C7.43761 23.4655 8.11442 22.945 8.87899 22.9869L14.7522 23.3099C15.0762 23.3277 15.3845 23.3995 15.6682 23.5162C16.0248 22.7269 16.4568 22.0028 16.9414 21.4702L17.7111 20.6239L17.8663 20.452L18.0895 20.2031L18.2324 20.0423L18.3707 19.885L18.5048 19.7308L18.635 19.5792L18.7614 19.4296C18.7822 19.4048 18.8028 19.3801 18.8233 19.3555L18.9447 19.208C18.9647 19.1835 18.9846 19.1591 19.0043 19.1346L19.1213 18.9882C19.8535 18.0616 20.4279 17.1383 21.1501 15.6463L21.2654 15.4059C21.3431 15.2424 21.4227 15.0723 21.5044 14.8948L21.6287 14.6231L21.7565 14.3399L21.888 14.0448L22.0237 13.7372L22.1637 13.4167L22.3082 13.0827L22.4576 12.7347L22.6122 12.3724L22.8542 11.8006L23.0228 11.3999L23.287 10.7683L23.4712 10.3261C23.4998 10.2574 23.5073 10.1637 23.5025 10.0495L23.4995 9.99544L23.495 9.93856L23.4857 9.84824L23.4653 9.68525L23.4315 9.43365L23.4124 9.27912L23.3993 9.15874L23.3915 9.07654C23.3903 9.06272 23.3891 9.04884 23.388 9.0349L23.3817 8.95058C23.3808 8.93642 23.3799 8.92221 23.3791 8.90794L23.3749 8.82175C23.3502 8.1999 23.4474 7.49157 23.9892 6.86888C25.1233 5.56557 27.4137 5.90871 28.8955 7.35493Z" stroke="white" stroke-width="1.44086"></path>
<path d="M15.6648 39.7153L15.6898 23.398" stroke="white" stroke-width="1.44086" stroke-linejoin="round"></path>
</svg>
